<?xml version="1.0" encoding="utf-8"?>
<!-- Generator: Adobe Illustrator 16.0.0, SVG Export Plug-In . SVG Version: 6.00 Build 0)  -->
<!DOCTYPE svg PUBLIC "-//W3C//DTD SVG 1.1//EN" "http://www.w3.org/Graphics/SVG/1.1/DTD/svg11.dtd">
<svg version="1.1" id="Livello_1" xmlns="http://www.w3.org/2000/svg" xmlns:xlink="http://www.w3.org/1999/xlink" x="0px" y="0px"
	 width="174.304px" height="245.46px" viewBox="0 0 174.304 245.46" enable-background="new 0 0 174.304 245.46"
	 xml:space="preserve">
<path fill-rule="evenodd" clip-rule="evenodd" d="M8.428,245.46c-8.74-6.011-10.688-12.138-5.817-22.032
	c3.054-6.204,7.336-11.804,11.2-17.882c-6.998-5.699-10.771-13.323-7.284-22.834c4.952-13.507,16.482-14.923,29.157-14.233
	c0.343-8.139-1.768-15.335-4.219-22.548c-3.836-11.287-8.956-22.438-10.711-34.071c-4.061-26.915,5.47-49.314,26.458-66.742
	c0.512-0.425,0.981-0.919,1.543-1.261c9.112-5.554,14.122-13.838,18.099-23.669C71.35,9.068,80.901,2.753,92.721,0.352
	c6.582-1.337,8.948,1.116,8.238,7.734c-0.633,5.895-0.914,11.826-1.344,17.633c5.17,0.999,9.814,1.194,13.834,2.883
	c3.625,1.522,6.629,4.601,9.789,7.141c2.639,2.121,4.795,5.03,7.701,6.602c15.01,8.113,25.144,20.521,31.911,35.812
	c3.452,7.799,1.401,12.014-5.985,16.467c-2.425,1.462-4.34,3.984-6.081,6.326c-6.093,8.196-15.979,9.236-23.293,2.278
	c-6.802-6.472-6.798-6.466-14.442-1.04c-1.76,1.249-3.558,2.445-5.68,3.9c17.787,17.324,35.176,34.907,36.752,62.066
	c11.627,0.17,21.012,3.923,24.767,15.951c2.338,7.488-0.272,14.137-7.856,21.625c3.67,5.635,7.832,10.921,10.709,16.833
	c1.865,3.832,2.363,8.555,2.555,12.919c0.228,5.174-4.24,7.42-7.867,9.979C113.762,245.46,61.094,245.46,8.428,245.46z
	 M89.431,12.958c-8.839,3.71-13.625,10.234-17.078,21.85c-0.84,2.825-2.399,5.818-4.505,7.804
	c-3.959,3.733-8.649,6.677-12.875,10.146C32.323,71.349,25,96.434,34.539,124.269c4.919,14.356,12.646,27.861,11.956,43.924
	c29.109,0,57.683,0,87.611,0c-1.911-6.38-3.158-12.535-5.57-18.194c-5.657-13.274-15.637-23.366-25.822-33.222
	c-3.707-3.586-7.494-7.103-10.992-10.885c-2.502-2.707-3.134-6.385-0.697-9.102c1.406-1.568,5.043-2.734,6.857-2.015
	c3.971,1.576,6.473,0.143,9.584-1.823c3.541-2.237,7.411-4.475,11.43-5.312c6.273-1.306,11.037,2.257,15.227,6.721
	c3.418,3.642,5.221,3.242,8.465-0.535c3.166-3.689,6.67-7.089,10.385-10.993c-3.631-11.563-16.873-26.193-29.223-31.97
	c-2.34-1.095-5.326-2.477-6.295-4.535c-3.797-8.074-10.797-9.019-18.295-9.361c-7.047-0.323-9.401-2.544-9.691-9.642
	C89.277,22.712,89.431,18.085,89.431,12.958z M87.377,234.96c23.666,0,47.332,0.015,70.998-0.011
	c5.813-0.006,6.976-1.299,4.154-6.392c-3.102-5.599-7.115-10.753-11.219-15.696c-1.344-1.618-4.21-2.772-6.386-2.782
	c-38.498-0.164-76.997-0.129-115.496-0.077c-1.394,0.002-3.363,0.146-4.085,1.026c-4.502,5.488-9.261,10.885-12.88,16.942
	c-3.215,5.383-1.838,6.979,4.416,6.983C40.378,234.971,63.877,234.961,87.377,234.96z M87.395,198.961
	c19.139,0,38.277,0.019,57.414-0.025c2.147-0.005,4.387-0.033,6.421-0.615c4.382-1.254,7.337-4.282,7.489-8.9
	c0.145-4.39-2.337-7.683-6.588-8.955c-2.969-0.889-6.154-1.386-9.255-1.44c-9.981-0.176-19.969-0.066-29.954-0.065
	c-27.458,0.001-54.917-0.06-82.376,0.038c-8.982,0.032-14.675,4.299-14.514,10.361c0.162,6.077,5.441,9.597,14.448,9.601
	C49.452,198.967,68.424,198.961,87.395,198.961z"/>
</svg>
